<?xml version="1.0" encoding="utf-8"?>
<!-- Generator: Adobe Illustrator 21.0.0, SVG Export Plug-In . SVG Version: 6.00 Build 0)  -->
<svg version="1.1" id="Layer_1" xmlns="http://www.w3.org/2000/svg" xmlns:xlink="http://www.w3.org/1999/xlink" x="0px" y="0px"
	 viewBox="0 0 2302.9 2788.6" style="enable-background:new 0 0 2302.9 2788.6;" xml:space="preserve">
<style type="text/css">
	.st0{fill:#AF0138;}
	.st1{fill:#B20A88;}
</style>
<title>Ebene 2 (4)</title>
<g id="Ebene_2">
	<g id="Ebene_2-2">
		<path id="outer_left" class="st0" d="M1200.4,6.2L1200.4,6.2c66.8,26.6,99.4,102.2,72.8,169L265.4,2708.6
			c-26.6,66.8-102.2,99.4-169,72.8l0,0c-66.8-26.6-99.4-102.2-72.8-169L1031.4,79C1058,12.2,1133.7-20.4,1200.4,6.2z"/>
		<path id="outer_right" class="st0" d="M1103.2,9.4L1103.2,9.4c66.6-26.9,142.3,5.3,169.2,71.8l1021,2527.1
			c26.9,66.6-5.3,142.3-71.8,169.2l0,0c-66.6,26.9-142.3-5.3-169.2-71.8l-1021-2527.1C1004.5,112.1,1036.7,36.3,1103.2,9.4z"/>
		<path id="n_horizontal" class="st0" d="M640.2,2434v130h1030v-130c0-71.5-58.1-130-129-130H769.3
			C698.3,2304,640.2,2362.5,640.2,2434z"/>
		<path id="n_right" class="st0" d="M1517.7,2325.3l-18.5,7.5c-66.5,26.9-98.7,102.6-71.8,169.2l82.9,205.2
			c26.9,66.6,102.7,98.7,169.2,71.8c0,0,0,0,0,0l0,0c66.3-26.8,98.6-102.9,71.8-169.2l-90.4-223.8
			C1638.2,2329.7,1574,2302.5,1517.7,2325.3z"/>
		<path id="n_left" class="st0" d="M810.4,2332.8l-18.5-7.5c-56.1-22.7-120.5,4.7-143.2,60.8L559,2608
			c-26.8,66.3,5.5,142.4,71.8,169.2l0,0c66.3,26.8,142.5-5.5,169.2-71.8l82.2-203.4C909,2435.7,876.7,2359.6,810.4,2332.8z"/>
		<path id="outer_left-2" class="st1" d="M858.2,1943.5v-22c0-63.2,51.3-114.5,114.5-114.5h365c63.2,0,114.5,51.3,114.5,114.5v22
			c0,63.2-51.3,114.5-114.5,114.5h-365C909.5,2058,858.2,2006.7,858.2,1943.5z"/>
		<path id="outer_left-3" class="st1" d="M1103.8,1393.2l20.4-8.2c58.6-23.7,125.4,4.6,149.1,63.3l178,440.6
			c23.7,58.6-4.6,125.4-63.3,149.1l-20.4,8.2c-58.6,23.7-125.4-4.6-149.1-63.3l-178-440.6
			C1016.8,1483.7,1045.1,1416.9,1103.8,1393.2z"/>
	</g>
</g>
</svg>
