<svg id="Layer_1" data-name="Layer 1" xmlns="http://www.w3.org/2000/svg" viewBox="0 0 2288.7 2793.67"><defs><style>.cls-1{fill:#6c6;}.cls-2{fill:#39c;}</style></defs><title>smalsl-logo</title><g id="Ebene_2" data-name="Ebene 2"><g id="Ebene_2-2" data-name="Ebene 2-2"><path id="outer_left" data-name="outer left" class="cls-1" d="M1200.45,6.19h0a130.12,130.12,0,0,1,72.8,169L265.35,2708.56a130.12,130.12,0,0,1-169,72.8h0a130.12,130.12,0,0,1-72.8-169L1031.45,79A130.12,130.12,0,0,1,1200.45,6.19Z" transform="translate(-14.3 3.06)"/><path id="outer_right" data-name="outer right" class="cls-1" d="M1103.24,9.42h0a130,130,0,0,1,169.23,71.84l1021,2527.14a130,130,0,0,1-71.84,169.23h0a130,130,0,0,1-169.23-71.84L1031.4,178.66A130,130,0,0,1,1103.24,9.42Z" transform="translate(-14.3 3.06)"/><path id="n_horizontal" data-name="n horizontal" class="cls-2" d="M640.22,2434v130h1030V2434c0-71.5-58.08-130-129-130H769.27C698.29,2304,640.22,2362.48,640.22,2434Z" transform="translate(-14.3 3.06)"/><path id="n_right" data-name="n right" class="cls-2" d="M1517.73,2325.31l-18.54,7.49a130,130,0,0,0-71.83,169.2l82.9,205.2A130,130,0,0,0,1679.49,2779h0c66.29-26.79,98.62-102.94,71.83-169.24l-90.4-223.75A110,110,0,0,0,1517.73,2325.31Z" transform="translate(-14.3 3.06)"/><path id="n_left" data-name="n left" class="cls-2" d="M810.39,2332.8l-18.54-7.49c-56.1-22.66-120.54,4.69-143.2,60.78L559,2608c-26.79,66.29,5.54,142.45,71.83,169.23h0c66.3,26.79,142.45-5.54,169.24-71.83L882.23,2502C909,2435.74,876.68,2359.59,810.39,2332.8Z" transform="translate(-14.3 3.06)"/><rect id="outer_left-2" data-name="outer left-2" class="cls-1" x="843.92" y="1810.04" width="594" height="251" rx="114.5" ry="114.5"/><rect id="outer_left-3" data-name="outer left-3" class="cls-1" x="1120.35" y="1363.48" width="251" height="704.16" rx="114.5" ry="114.5" transform="translate(-566.24 594.68) rotate(-22)"/></g></g></svg>