<?xml version="1.0" encoding="UTF-8" standalone="no"?>
<!-- Created with Inkscape (http://www.inkscape.org/) -->

<svg
   xmlns:dc="http://purl.org/dc/elements/1.1/"
   xmlns:cc="http://creativecommons.org/ns#"
   xmlns:rdf="http://www.w3.org/1999/02/22-rdf-syntax-ns#"
   xmlns:svg="http://www.w3.org/2000/svg"
   xmlns="http://www.w3.org/2000/svg"
   xmlns:sodipodi="http://sodipodi.sourceforge.net/DTD/sodipodi-0.dtd"
   xmlns:inkscape="http://www.inkscape.org/namespaces/inkscape"
   width="66.245834mm"
   height="67.248222mm"
   viewBox="0 0 66.245834 67.248222"
   version="1.1"
   id="svg8"
   inkscape:version="0.92.2 (5c3e80d, 2017-08-06)"
   sodipodi:docname="GoogleMaps logo.svg">
  <title
     id="title907">GoogleMaps  logo</title>
  <defs
     id="defs2" />
  <sodipodi:namedview
     id="base"
     pagecolor="#ffffff"
     bordercolor="#666666"
     borderopacity="1.0"
     inkscape:pageopacity="0.0"
     inkscape:pageshadow="2"
     inkscape:zoom="1"
     inkscape:cx="158.15263"
     inkscape:cy="100.08391"
     inkscape:document-units="px"
     inkscape:current-layer="layer1"
     showgrid="false"
     inkscape:snap-object-midpoints="false"
     showguides="true"
     inkscape:guide-bbox="true"
     inkscape:snap-intersection-paths="false"
     inkscape:window-width="1920"
     inkscape:window-height="1017"
     inkscape:window-x="1358"
     inkscape:window-y="-8"
     inkscape:window-maximized="1"
     fit-margin-top="0.1"
     fit-margin-left="0"
     fit-margin-right="0.1"
     fit-margin-bottom="0"
     inkscape:object-nodes="true"
     inkscape:lockguides="true" />
  <metadata
     id="metadata5">
    <rdf:RDF>
      <cc:Work
         rdf:about="">
        <dc:format>image/svg+xml</dc:format>
        <dc:type
           rdf:resource="http://purl.org/dc/dcmitype/StillImage" />
        <dc:title>GoogleMaps  logo</dc:title>
        <dc:date>02/04/2018</dc:date>
        <dc:creator>
          <cc:Agent>
            <dc:title>Google, Inc.</dc:title>
          </cc:Agent>
        </dc:creator>
        <dc:publisher>
          <cc:Agent>
            <dc:title>CMetalCore</dc:title>
          </cc:Agent>
        </dc:publisher>
        <dc:source>http://www.logoeps.net/wp-content/uploads/2016/08/Google-Maps-logo.jpg</dc:source>
      </cc:Work>
    </rdf:RDF>
  </metadata>
  <g
     inkscape:label="Capa 1"
     inkscape:groupmode="layer"
     id="layer1"
     transform="translate(-176.03052,-224.24971)">
    <g
       id="g5035"
       transform="matrix(0.98012243,0,0,0.98012243,3.4990592,5.794271)">
      <rect
         ry="5.238483"
         rx="5.238483"
         y="231.39877"
         x="176.03078"
         height="60.099167"
         width="60.099167"
         id="rect1235"
         style="opacity:1;fill:#34a668;fill-opacity:1;stroke:none;stroke-width:1.78170907;stroke-linecap:round;stroke-linejoin:round;stroke-miterlimit:4;stroke-dasharray:none;stroke-dashoffset:0;stroke-opacity:1;paint-order:markers stroke fill" />
      <path
         inkscape:connector-curvature="0"
         id="path5000"
         d="m 206.47724,260.8998 -28.98737,28.98738 c 0.95208,0.99186 2.28981,1.61075 3.77961,1.61075 h 49.62178 c 1.69327,0 3.18961,-0.79908 4.146,-2.03811 z"
         style="opacity:1;fill:#5c88c5;fill-opacity:1;stroke:none;stroke-width:0.26458335px;stroke-linecap:butt;stroke-linejoin:miter;stroke-opacity:1" />
      <path
         sodipodi:nodetypes="ccccccccccccccccccccccc"
         inkscape:connector-curvature="0"
         id="ellipse1239"
         d="m 226.74164,222.9879 c -9.26523,-3e-5 -16.77621,7.16992 -16.77624,16.01453 0.007,2.76133 0.66273,5.47394 2.09238,7.87445 v 0 c 0.43042,0.70324 0.83091,1.40778 1.18959,2.10737 0.3336,0.50154 0.65067,1.00493 0.94982,1.50792 0.34373,0.47653 0.67371,0.95692 0.98857,1.43919 1.31001,1.76931 2.50056,3.50299 3.6375,5.16816 0.79248,1.27562 1.68289,2.63985 2.46548,3.99045 2.36368,4.09389 4.00715,8.09185 4.59972,13.91388 5.3e-4,0.004 5.3e-4,0.008 0.001,0.0124 0.18124,0.41155 0.51594,0.66553 0.8785,0.66663 0.40324,-0.001 0.76794,-0.31425 0.92966,-0.79841 0.60297,-5.7563 2.23804,-9.72915 4.58525,-13.7945 0.78259,-1.35061 1.673,-2.71484 2.46548,-3.99046 1.13695,-1.66516 2.32749,-3.39885 3.63751,-5.16816 0.31485,-0.48227 0.64483,-0.96265 0.98857,-1.43919 0.29914,-0.50299 0.61621,-1.00637 0.94981,-1.50792 0.35871,-0.69962 0.75966,-1.40408 1.19011,-2.10736 v 0 c 1.4255,-2.40159 1.9998,-5.11414 2.00349,-7.87446 -3e-5,-8.8446 -7.51101,-16.01455 -16.77624,-16.01452 z"
         style="opacity:1;fill:#dd4b3e;fill-opacity:1;stroke:none;stroke-width:3.13462877;stroke-linecap:round;stroke-linejoin:round;stroke-miterlimit:4;stroke-dasharray:none;stroke-dashoffset:0;stroke-opacity:1;paint-order:markers stroke fill" />
      <ellipse
         ry="5.5635381"
         rx="5.8281212"
         cy="239.00235"
         cx="226.74162"
         id="path1237"
         style="opacity:1;fill:#802d27;fill-opacity:1;stroke:none;stroke-width:1.08898437;stroke-linecap:round;stroke-linejoin:round;stroke-miterlimit:4;stroke-dasharray:none;stroke-dashoffset:0;stroke-opacity:1;paint-order:markers stroke fill" />
      <path
         inkscape:connector-curvature="0"
         id="path1241"
         d="m 190.30097,237.28315 c -4.67081,0 -8.45737,3.85319 -8.45737,8.6062 0,4.75301 3.78656,8.60619 8.45737,8.60619 3.04284,0 4.8061,-0.9577 6.33656,-2.51509 1.53046,-1.5574 2.08773,-3.91304 2.08773,-6.28954 0,-0.36257 -0.0232,-0.72286 -0.0641,-1.07952 h -3.2985 -0.62839 -4.33048 v 3.04271 h 4.84983 c -0.19704,0.75864 -0.53112,1.44997 -1.0573,1.98541 -0.9423,0.95889 -2.02809,1.54874 -3.90157,1.54874 -2.87584,0 -5.20744,-2.37246 -5.20744,-5.2989 0,-2.92644 2.3316,-5.2989 5.20744,-5.2989 1.39904,0 2.61848,0.40673 3.58428,1.29294 l 2.38125,-2.38125 c -0.001,-0.001 -0.003,-0.003 -0.004,-0.004 -1.58834,-1.52432 -3.61978,-2.21486 -5.95519,-2.21486 z m 4.42919,5.65909 c 10e-4,0.002 0.003,0.005 0.004,0.007 v -0.003 z"
         style="opacity:1;fill:#ffffff;fill-opacity:1;stroke:none;stroke-width:1.80578804;stroke-linecap:round;stroke-linejoin:round;stroke-miterlimit:4;stroke-dasharray:none;stroke-dashoffset:0;stroke-opacity:1;paint-order:markers stroke fill" />
      <path
         inkscape:connector-curvature="0"
         id="path5005"
         d="m 215.18369,251.92877 -7.97884,7.97884 28.47578,28.47579 c 0.28694,-0.649 0.44907,-1.3663 0.44907,-2.1239 v -31.16451 c -0.46838,0.67498 -0.93358,1.34879 -1.38131,2.00453 -0.79249,1.27561 -1.68289,2.63984 -2.46549,3.99045 -2.3472,4.06536 -3.98227,8.03821 -4.58525,13.79451 -0.16172,0.48415 -0.52641,0.79734 -0.92966,0.7984 -0.36255,-0.001 -0.69725,-0.25507 -0.87849,-0.66663 -5.3e-4,-0.004 -5.3e-4,-0.008 -0.001,-0.0124 -0.59257,-5.82203 -2.23604,-9.81999 -4.59972,-13.91388 -0.78259,-1.3506 -1.673,-2.71484 -2.46548,-3.99046 -1.13694,-1.66517 -2.3275,-3.39885 -3.63751,-5.16816 -5.3e-4,-7.9e-4 -0.002,-0.002 -0.002,-0.003 z"
         style="opacity:1;fill:#c3c3c3;fill-opacity:1;stroke:none;stroke-width:0.26458335px;stroke-linecap:butt;stroke-linejoin:miter;stroke-opacity:1" />
      <path
         inkscape:connector-curvature="0"
         id="rect4969"
         d="m 212.98331,248.49539 -36.95279,36.95278 v 0.81133 c 0,2.90212 2.33684,5.23843 5.23896,5.23843 h 1.01441 l 35.66604,-35.66604 c -0.87695,-1.27461 -1.78037,-2.57181 -2.76417,-3.90053 -0.31486,-0.48227 -0.64484,-0.96266 -0.98857,-1.43919 -0.29915,-0.50299 -0.61622,-1.00638 -0.94982,-1.50792 -0.0833,-0.16255 -0.17635,-0.32585 -0.26406,-0.48886 z"
         style="opacity:1;fill:#fddc4f;fill-opacity:1;stroke:none;stroke-width:1.38578618;stroke-linecap:round;stroke-linejoin:round;stroke-miterlimit:4;stroke-dasharray:none;stroke-dashoffset:0;stroke-opacity:1;paint-order:markers stroke fill" />
      <path
         inkscape:connector-curvature="0"
         id="path4980"
         d="m 211.99784,261.08274 -6.15157,6.15156 24.26364,24.26363 h 0.78135 c 2.90212,0 5.23844,-2.33631 5.23844,-5.23843 v -1.0449 z"
         style="opacity:1;fill:#ffffff;fill-opacity:1;stroke:none;stroke-width:1.38578618;stroke-linecap:round;stroke-linejoin:round;stroke-miterlimit:4;stroke-dasharray:none;stroke-dashoffset:0;stroke-opacity:1;paint-order:markers stroke fill" />
    </g>
  </g>
</svg>
